<svg width="20" height="15" viewBox="0 0 20 15" fill="none" xmlns="http://www.w3.org/2000/svg">
<g id="location_on">
<path id="icon" d="M9.96724 13.7562C9.78723 13.7562 9.63294 13.7163 9.50437 13.6366C9.37579 13.5568 9.27936 13.4522 9.21507 13.3226C8.97078 12.7644 8.6622 12.2411 8.28933 11.7527C7.92932 11.2643 7.42145 10.6911 6.76571 10.0333C6.10998 9.37539 5.57639 8.74743 5.16495 8.14937C4.76637 7.55131 4.56708 6.82865 4.56708 5.9814C4.56708 4.81518 5.08781 3.82839 6.12927 3.021C7.18358 2.20366 8.46291 1.79498 9.96724 1.79498C11.4716 1.79498 12.7445 2.20366 13.7859 3.021C14.8402 3.82839 15.3674 4.81518 15.3674 5.9814C15.3674 6.88846 15.1424 7.646 14.6924 8.25403C14.2552 8.85209 13.7473 9.44516 13.1688 10.0333C12.4745 10.7509 11.9473 11.349 11.5873 11.8274C11.2401 12.2959 10.9508 12.7943 10.7194 13.3226C10.6551 13.4621 10.5523 13.5718 10.4108 13.6515C10.2822 13.7213 10.1344 13.7562 9.96724 13.7562ZM9.96724 11.6181C10.1858 11.2792 10.4301 10.9453 10.7001 10.6164C10.983 10.2874 11.3944 9.84885 11.9344 9.30063C12.4873 8.74244 12.9373 8.22911 13.2845 7.76063C13.6445 7.28218 13.8245 6.6891 13.8245 5.9814C13.8245 5.15408 13.4452 4.45136 12.6866 3.87324C11.9409 3.28515 11.0344 2.9911 9.96724 2.9911C8.90006 2.9911 7.98718 3.28515 7.22859 3.87324C6.48285 4.45136 6.10998 5.15408 6.10998 5.9814C6.10998 6.6891 6.28356 7.28218 6.63071 7.76063C6.99072 8.22911 7.44716 8.74244 8.00004 9.30063C8.54005 9.84885 8.94506 10.2874 9.21507 10.6164C9.49794 10.9453 9.74866 11.2792 9.96724 11.6181ZM9.96724 7.47655C10.5073 7.47655 10.9637 7.33202 11.3366 7.04296C11.7094 6.7539 11.8959 6.40004 11.8959 5.9814C11.8959 5.56276 11.7094 5.20891 11.3366 4.91984C10.9637 4.63078 10.5073 4.48625 9.96724 4.48625C9.42722 4.48625 8.97078 4.63078 8.59791 4.91984C8.22504 5.20891 8.03861 5.56276 8.03861 5.9814C8.03861 6.40004 8.22504 6.7539 8.59791 7.04296C8.97078 7.33202 9.42722 7.47655 9.96724 7.47655Z" fill="#1D1B20"/>
</g>
</svg>
